# xmcd
#
# Track frame offsets:
#	150
#	15752
#	29950
#	43997
#	59357
#	72142
#	84975
#	98582
#	111400
#	125960
#	139890
#	154495
#	168582
#	181845
#	194920
#	209787
#	222397
#	236995
#	251155
#	265692
#	280097
#	295280
#
# Disc length: 4121 seconds
#
# Revision: 0
# Processed by: cddbd v1.5.2PL0 Copyright (c) Steve Scherf et al.
# Submitted via: audiograbber 1.81.03
#
DISCID=68101716
DTITLE=Tampa Red - Complete Recorded Works in Chronological Order Vol. 8
DYEAR=1936
DGENRE=Blues
TTITLE0=I Need You by My Side
TTITLE1=Blue and Evil Blues
TTITLE2=If it Wasn't for You
TTITLE3=Right or Wrong
TTITLE4=Stop Truckin' and Suzie-Q
TTITLE5=Cheatin' On Me
TTITLE6=Your One and Only
TTITLE7=My Za Zu Girl
TTITLE8=Someday I'm Bound to Win
TTITLE9=Taking It and Make My Get Away
TTITLE10=She Said It
TTITLE11=It's Hard to Believe it's True
TTITLE12=When Love Comes In
TTITLE13=You Got to Learn to Do It
TTITLE14=I Give My Love to You
TTITLE15=I See You can't Take It
TTITLE16=My Gal is Gone
TTITLE17=When the One You Love is Gone
TTITLE18=You're More than a Palace to Me
TTITLE19=Harlem Swing
TTITLE20=Oh Babe, Oh Baby
TTITLE21=I'm Gonna Get High
EXTD=Complete Recorded Works in Chronological Order Vol. 8 \n5 August 1936 to 1
EXTD=1 October 1937
EXTT0=
EXTT1=
EXTT2=
EXTT3=
EXTT4=
EXTT5=
EXTT6=
EXTT7=
EXTT8=
EXTT9=
EXTT10=
EXTT11=
EXTT12=
EXTT13=
EXTT14=
EXTT15=
EXTT16=
EXTT17=
EXTT18=
EXTT19=
EXTT20=
EXTT21=
PLAYORDER=
